<?xml version="1.0" encoding="utf-8"?>
<!-- Generator: Adobe Illustrator 23.0.1, SVG Export Plug-In . SVG Version: 6.00 Build 0)  -->
<svg version="1.1" id="Layer_1" xmlns="http://www.w3.org/2000/svg" xmlns:xlink="http://www.w3.org/1999/xlink" x="0px" y="0px"
	 viewBox="0 0 200 200" style="enable-background:new 0 0 200 200;" xml:space="preserve">
<style type="text/css">
	.st0{fill:#299DD8;}
	.st1{fill:#FFFFFF;}
</style>
<g>
	<circle class="st0" cx="98.1" cy="96.5" r="62.9"/>
	<g>
		<path class="st1" d="M128.4,84.9h-16c-5.6,0-10.1-4.6-10.1-10.1v-16c0-1.6,1.4-3,3-3s3,1.4,3,3v16c0,2.3,1.8,4.1,4.1,4.1h16
			c1.6,0,3,1.4,3,3C131.5,83.5,130.1,84.9,128.4,84.9L128.4,84.9z"/>
		<g>
			<path class="st1" d="M121.3,137.2H74.9c-5.6,0-10.1-4.6-10.1-10.1V65.9c0-5.6,4.6-10.1,10.1-10.1h30.4c0.8,0,1.5,0.4,2.2,0.9
				l23.1,23.1c0.6,0.5,0.9,1.4,0.9,2.2V127C131.5,132.6,126.9,137.2,121.3,137.2z M74.9,61.8c-2.3,0-4.1,1.8-4.1,4.1V127
				c0,2.3,1.8,4.1,4.1,4.1h46.4c2.3,0,4.1-1.8,4.1-4.1V83.1l-21.3-21.3H74.9z"/>
			<g>
				<path class="st1" d="M93.8,106.4v10h-5.5V90.2h7.6c3.6,0,6.1,0.6,7.9,1.9c1.6,1.3,2.5,3.2,2.5,5.8c0,1.5-0.4,2.9-1.3,4.1
					c-0.9,1.1-2,2.2-3.6,2.8c3.9,5.8,6.5,9.6,7.6,11.3H103l-6.2-10h-3V106.4z M93.8,101.8h1.8c1.8,0,3-0.3,3.8-0.9
					c0.9-0.6,1.3-1.5,1.3-2.8c0-1.3-0.4-2.2-1.3-2.7c-0.9-0.5-2.2-0.8-3.9-0.8h-1.6V101.8z"/>
			</g>
		</g>
	</g>
</g>
</svg>
