<svg preserveAspectRatio="none" width="100%" height="100%" overflow="visible" style="display: block;" viewBox="0 0 256 256" fill="none" xmlns="http://www.w3.org/2000/svg">
<path id="Vector" d="M128 0C111.191 0 94.5462 3.31082 79.0165 9.74342C63.4868 16.176 49.3762 25.6044 37.4903 37.4903C13.4857 61.495 0 94.0523 0 128C0 161.948 13.4857 194.505 37.4903 218.51C49.3762 230.396 63.4868 239.824 79.0165 246.257C94.5462 252.689 111.191 256 128 256C161.948 256 194.505 242.514 218.51 218.51C242.514 194.505 256 161.948 256 128C256 111.191 252.689 94.5462 246.257 79.0165C239.824 63.4868 230.396 49.3762 218.51 37.4903C206.624 25.6044 192.513 16.176 176.983 9.74342C161.454 3.31082 144.809 0 128 0Z" fill="var(--fill-0, #1969CB)"/>
</svg>
