<?xml version="1.0" encoding="UTF-8"?>
<svg id="Layer_1" xmlns="http://www.w3.org/2000/svg" version="1.1" viewBox="0 0 90 76">
  <!-- Generator: Adobe Illustrator 29.8.4, SVG Export Plug-In . SVG Version: 2.1.1 Build 6)  -->
  <defs>
    <style>
      .st0 {
        fill: #be202e;
      }

      .st1 {
        fill: #0053b8;
      }

      .st2 {
        fill: #fff;
      }

      .st3 {
        fill: #002d64;
      }
    </style>
  </defs>
  <path class="st3" d="M0,33.1c.6-.9,1.1-1.9,1.7-2.7.9-1.1,2.4-1.3,3.6-.7,4.7,2.1,9.5,4.2,14.2,6.3,1.2.5,2.5.9,3.6,1.6,2.5,1.5,5.1.7,7.6.5,4.1-.3,8.2-.7,12.3-1.1.7,0,1.3-.2,2.1-.3,0-.8-.1-1.6-.2-2.5-.4,0-.8,0-1.1,0-4.8.4-9.6.9-14.3,1.4-3.4.4-5-1.2-4.8-4.8,0-1.7,1.2-3.1,2.8-3.3,3.4-.4,6.9-.7,10.3-1,4.9-.4,9.8-.8,14.7-1.3,1.9-.2,3.5,0,5.3,1.2,5.3,3.6,10.9,6.9,16.3,10.3.3.2.7.5,1.1.7-.6.8-1.1,1.4-1.6,2.1-3.1,4-6.2,8-9.3,12-.5.6-.8.9-1.6.6-1-.4-2-.4-2.9-.8-3.5-1.4-7-.7-10.5-.4-4.9.4-9.7.7-14.5,1.4-3.7.6-6.7-.5-9.8-2.4-7.3-4.3-14.6-8.4-22-12.5-1.3-.7-2.4-1.5-2.9-3v-1.5h0Z"/>
  <path class="st3" d="M90,51c-.3.3-.6.5-.8.8-3.6,4.6-7.2,9.2-10.9,14-4.2-3.9-8.5-7.7-12.8-11.7,3.9-5,7.7-9.9,11.6-14.9.3.2.6.4.8.7,3.7,3.4,7.4,6.8,11.1,10.1.3.3.7.5,1,.7v.2h0Z"/>
  <path class="st1" d="M40.9,21.4c-1.7,1.8-3.5,2.7-6,2.4-3.7-.4-7.5-.4-11.2-.6-.7,0-1.1.2-1.5.8-1.5,2.3-3.8,3.4-6.5,3.4-4.1,0-7.6-5.2-6.3-9,.9-2.9,2.8-4.9,5.8-5.3,3.2-.4,5.7,1,7.5,3.6.3.4.9.8,1.3.7,1.5-.2,2.4.4,3.2,1.5.6.8,1.2,1,2,.4,0,0,.1,0,.2-.1,1.1-.7,2.1-1.1,2.8.6.7-.6,1.3-1.1,2-1.7.5.5.8,1,1.2,1.4.1,0,.2,0,.3,0,1.1-.7,2.2-.6,3.2.3.6.5,1.2,1.1,1.8,1.7h0ZM16.4,20.7c.3-1-.3-2-1.3-2.2-1-.3-2.1.3-2.3,1.4-.2,1,.3,2,1.3,2.3,1,.3,2.1-.3,2.3-1.4h0Z"/>
  <path class="st0" d="M39.6,12.6c-1,2.3-2.4,3.7-4.8,4.3-3.6.9-7.2,2.2-10.8,3.3-.7.2-.9.6-1.1,1.3-.6,2.7-2.4,4.5-4.9,5.4-3.8,1.4-8.9-2.2-9.1-6.3-.1-3,.9-5.5,3.6-6.9,2.9-1.5,5.7-1.1,8.3.8.4.3,1.1.4,1.5.2,1.3-.7,2.4-.5,3.5.3.8.6,1.5.5,2-.4,0,0,.1-.1.2-.2.8-1,1.6-1.8,2.8-.4.5-.8.9-1.5,1.3-2.3.6.3,1.1.6,1.6.9.1,0,.2,0,.3-.1.8-1.1,1.8-1.4,3.1-.8.7.3,1.5.6,2.3.9ZM16.3,20.4c-.1-1-1-1.7-2-1.7-1.1,0-1.8,1-1.7,2.1.1,1,1,1.7,2,1.7,1.1,0,1.8-1,1.7-2.1h0Z"/>
  <path class="st2" d="M16.2,20.3c0,1.1-.9,1.9-1.9,1.9-1,0-1.8-.8-1.8-1.9,0-1.1.8-1.9,1.9-1.9,1,0,1.8.8,1.8,1.9h0Z"/>
</svg>